<?xml version="1.0" standalone="no"?>
<!DOCTYPE svg PUBLIC "-//W3C//DTD SVG 20010904//EN"
 "http://www.w3.org/TR/2001/REC-SVG-20010904/DTD/svg10.dtd">
<svg version="1.0" xmlns="http://www.w3.org/2000/svg"
 width="250.000000pt" height="250.000000pt" viewBox="0 0 250.000000 250.000000"
 preserveAspectRatio="xMidYMid meet">
<metadata>
Created by potrace 1.11, written by Peter Selinger 2001-2013
</metadata>
<g transform="translate(0.000000,250.000000) scale(0.100000,-0.100000)"
fill="#000000" stroke="none">
<path d="M160 1740 l0 -600 465 0 465 0 0 600 0 600 -465 0 -465 0 0 -600z"/>
<path d="M1410 1730 l0 -610 465 0 465 0 0 610 0 610 -465 0 -465 0 0 -610z"/>
<path d="M160 520 l0 -360 1090 0 1090 0 0 360 0 360 -1090 0 -1090 0 0 -360z"/>
</g>
</svg>
